<svg version="1.2" xmlns="http://www.w3.org/2000/svg" viewBox="0 0 664 306" width="664" height="306">
	<title>Logo_IKOULA_2023_violet_FR-Vector(1)-svg</title>
	<style>
		.s0 { fill: #ff7828 } 
		.s1 { fill: #1e195a } 
		.s2 { fill: #da0202 } 
		.s3 { fill: #eeeeee } 
		.s4 { fill: #0e55c9 } 
	</style>
	<g id="CONTENU">
		<g id="&lt;Group&gt;">
			<path id="&lt;Path&gt;" class="s0" d="m38.7 172.2c-27.5-27.5-27.5-72.2 0-99.7 0 0 22.3 22.3 49.8 49.9z"/>
			<path id="&lt;Path&gt;" class="s0" d="m88.5 122.4c-27.5-27.6-27.5-72.2 0-99.7 0 0 22.4 22.3 49.9 49.8z"/>
			<path id="&lt;Path&gt;" class="s0" d="m88.5 222c-27.5-27.5-27.5-72.1 0-99.6 0 0 22.4 22.3 49.9 49.8z"/>
			<path id="&lt;Path&gt;" class="s0" d="m138.4 172.2c-27.5-27.5-27.5-72.2 0-99.7 0 0 22.3 22.3 49.8 49.9z"/>
			<path id="&lt;Path&gt;" class="s1" d="m167.4 122.4c0 7.3-5.9 13.2-13.2 13.2-7.3 0-13.2-5.9-13.2-13.2 0-7.4 5.9-13.3 13.2-13.3 7.3 0 13.2 5.9 13.2 13.3z"/>
		</g>
	</g>
	<path id="Hébergeur                   DEPU" class="s1" d="m155 272.4v6.9h-8v-6.9h-4.1v17.6h4.1v-7.2h8v7.2h4.1v-17.6z"/>
	<path id="Hébergeur                   DEPU" fill-rule="evenodd" class="s1" d="m171.3 270.9h-3.1l3.4-3.6h4.2zm6.1 15.9v3.2h-13.7v-17.6h13.4v3.3h-9.3v3.8h8.2v3.2h-8.2v4.1zm19.9-1.6c0 3.1-2.4 4.8-7 4.8h-9.1v-17.6h8.6c4.4 0 6.7 1.8 6.7 4.6 0 1.7-0.9 3.1-2.4 3.9 2 0.6 3.2 2.1 3.2 4.3zm-12.1-9.7v4.1h4.1c2 0 3.1-0.7 3.1-2.1 0-1.4-1.1-2-3.1-2zm8.1 9.3c0-1.5-1.2-2.2-3.3-2.2h-4.7v4.4h4.7c2.1 0 3.3-0.7 3.3-2.2zm21.3 2v3.2h-13.6v-17.6h13.3v3.3h-9.3v3.8h8.2v3.2h-8.2v4.1zm15 3.2l-3.4-4.9h-3.7v4.9h-4.1v-17.6h7.6c4.8 0 7.7 2.4 7.7 6.4 0 2.6-1.3 4.6-3.6 5.6l3.9 5.6zm-3.8-14.3h-3.3v6.2h3.3c2.5 0 3.8-1.2 3.8-3.1 0-2-1.3-3.1-3.8-3.1zm23.6 5.2h3.7v7.2c-1.9 1.5-4.6 2.2-7.1 2.2-5.6 0-9.7-3.8-9.7-9.1 0-5.3 4.1-9.1 9.7-9.1 3.1 0 5.7 1 7.4 3l-2.6 2.5c-1.3-1.4-2.8-2-4.6-2-3.4 0-5.7 2.3-5.7 5.6 0 3.3 2.3 5.7 5.7 5.7 1.1 0 2.1-0.2 3.2-0.8zm21.6 5.9v3.3h-13.6v-17.7h13.3v3.3h-9.3v3.8h8.2v3.2h-8.2v4.1zm3.7-4.5v-9.9h4v9.7c0 3.4 1.5 4.8 4 4.8 2.5 0 3.9-1.4 3.9-4.8v-9.7h4v9.9c0 5.2-2.9 8.1-8 8.1-5 0-7.9-2.9-7.9-8.1zm31.7 7.8l-3.4-5h-3.7v5h-4.1v-17.7h7.6c4.7 0 7.7 2.5 7.7 6.4 0 2.7-1.4 4.6-3.7 5.6l4 5.7zm-3.8-14.4h-3.3v6.2h3.3c2.5 0 3.7-1.2 3.7-3.1 0-1.9-1.2-3.1-3.7-3.1zm165.8-3.3h8c5.8 0 9.7 3.5 9.7 8.8 0 5.4-3.9 8.9-9.7 8.9h-8zm7.8 14.4c3.5 0 5.8-2.1 5.8-5.5 0-3.4-2.3-5.5-5.8-5.5h-3.7v11zm27.2 0v3.3h-13.7v-17.6h13.4v3.3h-9.3v3.8h8.2v3.2h-8.2v4zm19.1-7.9c0 3.9-3 6.4-7.7 6.4h-3.6v4.8h-4v-17.6h7.6c4.7 0 7.7 2.4 7.7 6.4zm-4.2 0c0-2-1.2-3.1-3.7-3.1h-3.4v6.1h3.4c2.5 0 3.7-1.1 3.7-3zm7.3 3.5v-9.9h4.1v9.7c0 3.4 1.5 4.7 3.9 4.7 2.5 0 4-1.3 4-4.7v-9.7h4v9.9c0 5.1-3 8-8 8-5 0-8-2.9-8-8zm20.5-9.9h4.1v17.6h-4.1zm7.4 15.8l1.4-3c1.5 1 3.7 1.8 5.8 1.8 2.5 0 3.4-0.8 3.4-1.9 0-3.3-10.2-1-10.2-7.6 0-3 2.4-5.5 7.4-5.5 2.2 0 4.5 0.6 6.1 1.6l-1.2 3.1c-1.7-0.9-3.3-1.4-4.9-1.4-2.4 0-3.4 0.9-3.4 2 0 3.3 10.3 1 10.3 7.5 0 3-2.4 5.5-7.5 5.5-2.8 0-5.6-0.9-7.2-2.1zm31.3-15.9v17.7h-4.1v-14.4h-3.5v-3.3zm17.7 8.5c0 6.1-3.6 9.5-9 9.5-1.9 0-3.6-0.4-4.9-1.2l1.5-3q1.5 0.9 3.3 0.9c3 0 4.9-1.8 5-5.2-1 1-2.5 1.6-4.4 1.6-3.4 0-6.1-2.2-6.1-5.5 0-3.6 3-5.9 6.7-5.9 4.9 0 7.9 3.1 7.9 8.8zm-4.6-3.1c0-1.5-1.1-2.6-3-2.6-1.8 0-3 1-3 2.6 0 1.6 1.2 2.6 3 2.6 1.8 0 3-1.1 3-2.6zm21.2 3.1c0 6.1-3.7 9.5-9 9.5-1.9 0-3.7-0.4-4.9-1.2l1.5-3q1.5 0.9 3.3 0.9c2.9 0 4.8-1.8 5-5.2-1.1 1-2.6 1.6-4.4 1.6-3.4 0-6.1-2.2-6.1-5.5 0-3.6 3-5.9 6.7-5.9 4.9 0 7.9 3.1 7.9 8.8zm-4.6-3.1c0-1.5-1.1-2.6-3.1-2.6-1.7 0-2.9 1-2.9 2.6 0 1.6 1.2 2.6 3 2.6 1.8 0 3-1.1 3-2.6zm21.8 7.2c0 3.3-3 5.4-7.5 5.4-4.4 0-7.4-2.1-7.4-5.4 0-1.9 1-3.3 2.7-4.2-1.3-0.8-2-2-2-3.6 0-3.1 2.7-5.1 6.7-5.1 4.1 0 6.9 2 6.9 5.1 0 1.6-0.8 2.8-2.1 3.6 1.7 0.9 2.7 2.3 2.7 4.2zm-10.2-7.7c0 1.4 1.1 2.2 2.7 2.2 1.7 0 2.8-0.8 2.8-2.2 0-1.3-1.1-2.2-2.8-2.2-1.6 0-2.7 0.9-2.7 2.2zm6.1 7.5c0-1.5-1.3-2.5-3.4-2.5-2 0-3.2 1-3.2 2.5 0 1.6 1.2 2.6 3.2 2.6 2.1 0 3.4-1 3.4-2.6z"/>
	<g id="parallelogram copy 3">
		<path id="Path 9" class="s2" d="m405.8 280.3c-2.6 3.9-4.8 8.1-4.8 8.5 0 0.2 7.3 0.2 16.2 0.2h16.3c7.3-11.2 9.5-16.4 9.5-16 0 0.1-7.3 0-16.3 0h-16.2z"/>
	</g>
	<g id="parallelogram copy 8">
		<path id="Path 9" class="s3" d="m371.8 280.3c-2.6 3.9-4.8 8.1-4.8 8.5 0 0.2 7.3 0.2 16.2 0.2h16.3c7.3-11.2 9.5-16.4 9.5-16 0 0.1-7.3 0-16.3 0h-16.2z"/>
	</g>
	<g id="parallelogram copy 9">
		<path id="Path 9" class="s4" d="m337.8 280.3c-2.6 3.9-4.8 8.1-4.8 8.5 0 0.2 7.3 0.2 16.2 0.2h16.3c7.3-11.2 9.5-16.4 9.5-16 0 0.1-7.3 0-16.3 0h-16.2z"/>
	</g>
	<g id="&lt;Group&gt;">
		<path id="&lt;Path&gt;" class="s1" d="m142.5 245.9h23.4v-73.8l-23.4 23.4z"/>
		<path id="&lt;Path&gt;" class="s1" d="m520.2 218.6v-96.3h-23.4v98.5c0 16.8 10.4 28.6 27.1 28.6 6.9 0 12-1.4 13.2-2v-19.5c-1.6 0.3-3.9 0.9-7.2 0.9-7 0-9.7-3.9-9.7-10.2z"/>
		<path id="&lt;Compound Path&gt;" fill-rule="evenodd" class="s1" d="m636.3 228.2q0.7 0 1.2-0.1l-4 19.2c0 0-8.4 1.6-14.6-0.2-5.3-1.6-8.7-5.8-11.2-10.4-4.6 6.7-13.2 12.8-25.7 12.8-18.5 0-29.8-12.5-29.8-26 0-15.5 11.5-24.1 25.9-26.3l21.3-3.1c2-0.3 3.4-0.9 4.4-1.6 1.6-1.2 2.1-2.8 2.1-4.6 0-2.3-0.7-4.5-2.1-6.4-2.2-2.9-6.4-4.9-12.5-4.9-10.2 0-15.8 6.6-16.5 14.1l-20.8-4.4c1.4-13.5 13.9-28.5 37.2-28.5 4.7 0 8.9 0.5 12.6 1.3 13.2 3 20.5 10.8 23.5 20.5 1 3.5 1.5 7.3 1.5 11.1v30c0 4.2 3.3 7.5 7.5 7.5zm-30.4-20l-2.1 0.3-17.4 2.7c-6 0.8-10.7 4.2-10.7 10.9 0 5.1 3.7 10 11.2 10 7.1 0 13.8-2.4 17-9.4 1.3-2.8 2-6.3 2-10.7z"/>
		<path id="&lt;Compound Path&gt;" fill-rule="evenodd" class="s1" d="m373 202.6c0 26.6-19.6 46-45.5 46-25.9 0-45.4-19.4-45.4-46 0-26.8 19.5-46 45.4-46 25.9 0 45.5 19.2 45.5 46zm-23.5 0c0-16.4-10.5-24.7-22-24.7-11.4 0-22 8.3-22 24.7 0 16.2 10.6 24.7 22 24.7 11.5 0 22-8.3 22-24.7z"/>
		<path id="&lt;Compound Path&gt;" class="s1" d="m448.9 236.6c-4.8 8.1-14.8 11.6-24 11.6-20.9 0-32.9-15.3-32.9-34.1v-54.8h23.4v50c0 9.7 4.9 17.4 15.9 17.4 10.4 0 16.4-7 16.4-17v-50.4h23.4v71c0 6.7 0.5 12.6 0.9 15.6h-22.4c-0.4-1.7-0.7-5.8-0.7-9.3z"/>
		<path id="&lt;Path&gt;" class="s1" d="m241.5 195.7l34.7-36.4h-30.6l-30 32.2v-69.2l-23.4 23.5v100.1h23.4v-22.9l9.7-10.2 22.9 33.1h28.7z"/>
	</g>
</svg>